<svg xmlns="http://www.w3.org/2000/svg" viewBox="0 0 256 256" xml:space="preserve"><path fill="#72C2E9" d="M244.005 110.705H230.83c-2.64-15.85-8.88-30.48-17.83-43.04l9.315-9.315a5.005 5.005 0 0 0 .365-6.677 121.824 121.824 0 0 0-18.268-18.268 5.005 5.005 0 0 0-6.677.365l-9.315 9.315c-12.56-8.96-27.19-15.19-43.04-17.83V12.08c0-2.555-1.923-4.71-4.463-4.979a122.165 122.165 0 0 0-25.833 0c-2.54.269-4.463 2.425-4.463 4.979v13.175c-15.85 2.64-30.48 8.87-43.04 17.83l-9.315-9.315a5.005 5.005 0 0 0-6.677-.365 121.824 121.824 0 0 0-18.268 18.268 5.005 5.005 0 0 0 .365 6.677L43 67.665c-8.95 12.56-15.19 27.19-17.83 43.04H11.995c-2.555 0-4.71 1.923-4.979 4.463a122.098 122.098 0 0 0 0 25.833c.269 2.54 2.425 4.463 4.979 4.463H25.17c1.7 10.19 4.88 19.87 9.33 28.82a98.92 98.92 0 0 0 4.38 7.95c4.21-11.68 10.68-22.27 18.87-31.26-.84-2.58-1.54-5.23-2.1-7.93-9.417-45.487 25.477-88.83 72.35-88.83 40.8 0 73.87 33.07 73.87 73.87 0 7.824-1.217 15.568-3.61 22.86 4.6 5.04 8.65 10.59 12.07 16.54 2.68 4.67 4.97 9.59 6.81 14.72a98.92 98.92 0 0 0 4.38-7.95c4.44-8.95 7.62-18.62 9.31-28.79h13.175c2.555 0 4.71-1.923 4.979-4.463.913-8.617.913-17.216 0-25.833-.268-2.54-2.424-4.463-4.979-4.463z"/><path fill="#4BA5C8" d="M55.65 143.045c.56 2.7 1.26 5.35 2.1 7.93-8.19 8.99-14.66 19.58-18.87 31.26a98.92 98.92 0 0 1-4.38-7.95 100.124 100.124 0 0 1 18.07-28.02c1-1.1 2.02-2.17 3.08-3.22zM221.52 174.255a98.92 98.92 0 0 1-4.38 7.95 91.946 91.946 0 0 0-6.81-14.72 94.097 94.097 0 0 0-12.07-16.54 72.98 72.98 0 0 0 2.11-7.94c8.775 8.858 16.025 19.303 21.15 31.25z"/><path fill="#C5E5FE" d="M216.978 148.514a2.499 2.499 0 0 1-1.96-2.941 89.726 89.726 0 0 0 1.364-9.405c.125-1.375 1.343-2.402 2.716-2.263a2.5 2.5 0 0 1 2.263 2.716 94.624 94.624 0 0 1-1.441 9.933 2.5 2.5 0 0 1-2.942 1.96zm2.254-19.61a2.501 2.501 0 0 1-2.499-2.454c-.42-23.084-9.647-44.789-25.981-61.116a2.5 2.5 0 0 1 0-3.536 2.503 2.503 0 0 1 3.536-.001c17.255 17.249 27.002 40.177 27.445 64.562a2.5 2.5 0 0 1-2.454 2.546l-.047-.001z"/><path fill="#F0C020" d="M245.365 231.915c0 9.787-7.952 17.837-17.859 17.837H28.527c-9.875 0-17.859-7.984-17.859-17.837 0-10.005 8.147-17.837 17.859-17.837h4.801a93.683 93.683 0 0 1 5.551-31.84 93.683 93.683 0 0 1 18.869-31.264c13.09-14.361 30.58-24.637 50.34-28.7v-1.434c0-10.994 8.919-19.912 19.912-19.912 10.097 0 19.945 7.512 19.945 21.346 19.76 4.052 37.239 14.318 50.318 28.668a94.44 94.44 0 0 1 12.069 16.544c8.092 14.087 12.373 30.122 12.373 46.592h4.801c9.853 0 17.859 7.995 17.859 17.837z"/><path fill="#F8E5B0" d="M227.506 242.252H28.527a2.5 2.5 0 1 1 0-5h198.979c2.955 0 5.359-2.395 5.359-5.338 0-2.942-2.404-5.337-5.359-5.337a2.5 2.5 0 1 1 0-5c5.712 0 10.359 4.637 10.359 10.337s-4.647 10.338-10.359 10.338zM212.705 216.577a2.5 2.5 0 0 1-2.5-2.5c0-34.186-21.534-64.897-53.585-76.422a2.5 2.5 0 0 1 1.691-4.705c34.03 12.236 56.894 44.839 56.894 81.127a2.5 2.5 0 0 1-2.5 2.5z"/><path d="M251.47 114.904a7.493 7.493 0 0 0-7.47-6.699h-11.07c-.06-.311-.12-.62-.18-.92-.26-1.33-1.6-2.25-2.93-1.971a2.497 2.497 0 0 0-1.98 2.931c.19.96.37 1.93.52 2.869a2.502 2.502 0 0 0 2.47 2.091h13.18c1.29 0 2.36.96 2.49 2.229.861 8.204.922 16.518 0 25.3-.13 1.25-1.22 2.23-2.5 2.23h-13.17c-1.23 0-2.26.88-2.47 2.09a99.85 99.85 0 0 1-9.08 28.09 100.017 100.017 0 0 1-1.727 3.304 93.462 93.462 0 0 0-5.053-10.203 97.023 97.023 0 0 0-11.446-15.925c2.058-6.769 3.316-13.908 3.316-22.235 0-42.177-34.173-76.37-76.37-76.37-48.525 0-84.565 44.604-74.8 91.83a77.418 77.418 0 0 0 1.764 6.821c-6.919 7.83-12.46 16.586-16.5 26.117a103.342 103.342 0 0 1-1.724-3.298 99.95 99.95 0 0 1-9.1-28.13 2.502 2.502 0 0 0-2.47-2.09H11.99c-1.27 0-2.36-.98-2.49-2.23-.889-8.523-.896-16.77 0-25.3.13-1.25 1.22-2.229 2.5-2.229h13.17c1.23 0 2.26-.88 2.47-2.091 2.5-15.01 8.52-29.539 17.4-42 .71-1 .59-2.35-.27-3.22l-9.32-9.31c-.896-.917-.991-2.335-.19-3.34a119.676 119.676 0 0 1 17.9-17.891c.996-.813 2.423-.719 3.34.181l9.31 9.319c.84.84 2.25.96 3.22.26 12.45-8.88 26.97-14.89 42-17.399 1.21-.2 2.09-1.23 2.09-2.46v-13.18c0-1.271.98-2.36 2.23-2.49 8.42-.891 16.88-.891 25.3 0 1.25.13 2.23 1.22 2.23 2.49v13.18c0 1.229.88 2.26 2.09 2.46 15.03 2.51 29.55 8.52 42 17.399.97.7 2.38.58 3.22-.26l9.31-9.319c.904-.887 2.325-1.002 3.34-.19a119.67 119.67 0 0 1 17.89 17.9c.78.953.745 2.404-.19 3.34l-9.31 9.31c-.86.87-.98 2.22-.27 3.22a101.66 101.66 0 0 1 11.29 20.471c.51 1.25 2.01 1.88 3.26 1.37a2.507 2.507 0 0 0 1.37-3.261c-2.82-6.909-6.4-13.55-10.63-19.739l7.83-7.841a7.495 7.495 0 0 0 .54-10.01 123.979 123.979 0 0 0-18.64-18.649c-2.899-2.368-7.271-2.19-10.01.55l-7.84 7.83c-12.21-8.351-25.75-13.96-40.25-16.681v-11.08a7.49 7.49 0 0 0-6.7-7.46 124.74 124.74 0 0 0-26.36 0 7.49 7.49 0 0 0-6.7 7.46v11.079c-14.5 2.721-28.04 8.33-40.25 16.681l-7.84-7.83c-2.72-2.721-7.07-2.934-10.01-.55a124.026 124.026 0 0 0-18.64 18.649c-2.429 2.97-2.148 7.323.54 10.01l7.83 7.841c-8.36 12.229-13.97 25.77-16.68 40.25H12c-3.85 0-7.06 2.88-7.47 6.699a124.628 124.628 0 0 0 0 26.36c.41 3.82 3.62 6.7 7.47 6.7h11.07c2.295 12.217 6.643 23.716 13.079 34.544a96.105 96.105 0 0 0-5.289 29.066h-2.33c-11.066.02-20.36 8.907-20.36 20.34 0 11.273 9.129 20.34 20.36 20.34h198.98c11.22-.01 20.35-9.13 20.36-20.34-.01-11.21-9.14-20.33-20.36-20.34h-2.34c-.26-10.037-2.051-19.819-5.298-29.099a105.07 105.07 0 0 0 13.058-34.512H244c3.85 0 7.06-2.88 7.47-6.7.929-8.845.935-17.469 0-26.359zM59.6 152.654a92.174 92.174 0 0 1 9.02-8.64c1.06-.88 1.2-2.46.32-3.52-.85-1.021-2.51-1.17-3.53-.311a96.984 96.984 0 0 0-6.467 5.932 72.532 72.532 0 0 1-.843-3.582c-9.176-44.101 24.535-85.82 69.9-85.82 39.373 0 71.37 31.846 71.37 71.37 0 5.907-.72 11.977-2.294 18.003-12.486-12.515-28.508-21.713-46.636-25.833-.309-12.083-10.206-21.83-22.44-21.83-12.13 0-22.077 9.646-22.41 21.83a95.916 95.916 0 0 0-23.14 8.54 2.496 2.496 0 0 0-1.05 3.37c.642 1.24 2.156 1.683 3.37 1.06a90.559 90.559 0 0 1 20.819-7.829v86.187H35.883c.589-21.896 8.88-42.645 23.717-58.927zm163.169 63.921h4.74c8.45.02 15.34 6.899 15.36 15.34-.02 8.439-6.91 15.319-15.36 15.34H28.53c-8.46-.021-15.35-6.9-15.36-15.34.01-8.45 6.9-15.33 15.36-15.34h4.732c.023 0 .045.007.068.007h189.372c.023 0 .044-.006.067-.007zm-2.614-4.993H150.44v-29.308a2.5 2.5 0 0 0-5 0v29.308h-34.851l.001-90.747c.01-9.58 7.83-17.391 17.41-17.41 8.549.018 17.44 6.325 17.44 18.85v40a2.5 2.5 0 0 0 5 0V125.4c25.311 6.071 45.693 22.371 57.72 43.334 7.212 12.497 11.56 27.214 11.995 42.848z"/><path d="M225.5 98.774c.384 1.262 1.731 2.097 3.11 1.681a2.487 2.487 0 0 0 1.68-3.101v-.01c-.38-1.28-1.82-2.07-3.11-1.68a2.496 2.496 0 0 0-1.68 3.11z"/><circle cx="147.94" cy="172.274" r="2.5"/><path d="M73.63 134.035c-1.141.752-1.456 2.31-.69 3.47a2.506 2.506 0 0 0 3.47.689c0-.01.01-.01.01-.01 1.122-.755 1.449-2.317.68-3.46-.74-1.11-2.36-1.429-3.47-.689z"/></svg>